Coordinates
version=1
nRows=14
nColumns=24
inDegrees=yes

Units are S.I. units (second, meters, Newtons, ...)
Angles are in degrees.

endheader
time	pelvis_tilt	pelvis_list	pelvis_rotation	pelvis_tx	pelvis_ty	pelvis_tz	hip_flexion_r	hip_adduction_r	hip_rotation_r	knee_angle_r	ankle_angle_r	subtalar_angle_r	mtp_angle_r	hip_flexion_l	hip_adduction_l	hip_rotation_l	knee_angle_l	ankle_angle_l	subtalar_angle_l	mtp_angle_l	lumbar_extension	lumbar_bending	lumbar_rotation
      7.84000000	      0.31590457	      2.16023475	      9.72332764	      2.26781127	      0.89284883	     -0.19647092	      1.29391140	      3.10907181	      1.13241603	    -10.67105416	     15.07319583	     -0.60303362	      0.00000000	     21.72412837	      4.35509769	      0.69834311	    -65.82596766	      4.39687159	     -7.75553051	      0.00000000	     -8.35748328	     -3.53235185	    171.89912304
      7.85000000	      0.17199096	      2.36267811	      9.39845278	      2.27665418	      0.89305887	     -0.19618219	      0.75300342	      2.95387622	      1.28770220	    -10.56210028	     15.36712952	     -0.32231316	      0.00000000	     22.83462039	      4.66667471	      0.30688812	    -64.39172714	      5.79940425	     -7.84185416	      0.00000000	     -8.40498691	     -3.76278081	    172.30269139
      7.86000000	      0.04469250	      2.51087003	      9.05488002	      2.28549120	      0.89315078	     -0.19594982	      0.20334175	      2.85074400	      1.47519724	    -10.44717316	     15.63082960	     -0.07268258	      0.00000000	     23.84962499	      4.90682413	     -0.07051024	    -62.68765203	      7.04630807	     -7.78782688	      0.00000000	     -8.45261481	     -3.91427357	    172.69138906
      7.87000000	     -0.07690253	      2.61291934	      8.70246055	      2.29434310	      0.89310761	     -0.19576289	     -0.35206518	      2.79198246	      1.68925551	    -10.31857867	     15.87787201	      0.12988000	      0.00000000	     24.77032204	      5.08894536	     -0.42142312	    -60.71622713	      8.12718052	     -7.60543685	      0.00000000	     -8.48996015	     -4.00563062	    173.07571414
      7.88000000	     -0.19418240	      2.66514165	      8.31776014	      2.30323406	      0.89295874	     -0.19564376	     -0.91376838	      2.77424901	      1.95009473	    -10.17455499	     16.08338420	      0.31253972	      0.00000000	     25.58096843	      5.20808747	     -0.75242341	    -58.46960207	      9.00773978	     -7.33125674	      0.00000000	     -8.50402153	     -4.01535311	    173.48774111
      7.89000000	     -0.28374687	      2.67543869	      7.84800184	      2.31216392	      0.89275856	     -0.19552229	     -1.50786651	      2.79060962	      2.34777217	    -10.01308879	     16.22193122	      0.46914609	      0.00000000	     26.24424471	      5.24842767	     -1.10268459	    -55.94878396	      9.62600536	     -7.04140610	      0.00000000	     -8.52812331	     -3.94647383	    174.00153749
      7.90000000	     -0.38446930	      2.66644455	      7.40670557	      2.32116853	      0.89242562	     -0.19546032	     -2.11212395	      2.82190675	      2.73898478	     -9.81976300	     16.34876247	      0.54784686	      0.00000000	     26.79466679	      5.27727163	     -1.37834058	    -53.16789539	     10.00923309	     -6.73574223	      0.00000000	     -8.52373639	     -3.86713678	    174.44871809
      7.91000000	     -0.54691293	      2.64189633	      7.03803858	      2.33027499	      0.89190291	     -0.19553934	     -2.67071746	      2.85512908	      3.03480143	     -9.60818896	     16.46359640	      0.61498453	      0.00000000	     27.27788124	      5.33162803	     -1.52602902	    -50.13553693	     10.14465783	     -6.45781185	      0.00000000	     -8.42886078	     -3.77320493	    174.80007411
      7.92000000	     -0.61323140	      2.59334026	      6.52310523	      2.33945074	      0.89142152	     -0.19549443	     -3.33454849	      2.90986218	      3.57002336	     -9.38808702	     16.54722528	      0.62707017	      0.00000000	     27.51042640	      5.29002690	     -1.73497950	    -46.84786622	      9.96701861	     -6.43847957	      0.00000000	     -8.42284763	     -3.62455991	    175.32145926
      7.93000000	     -0.69701664	      2.55065669	      6.09797514	      2.34877369	      0.89082185	     -0.19553759	     -4.00889968	      2.95776083	      3.99254573	     -9.14312718	     16.58370176	      0.56126397	      0.00000000	     27.61064535	      5.28707501	     -1.81251202	    -43.32597697	      9.57593200	     -6.52855962	      0.00000000	     -8.38601943	     -3.50422231	    175.73087355
      7.94000000	     -0.91665819	      2.46287224	      5.72114119	      2.35822826	      0.88989635	     -0.19567543	     -4.52046267	      3.03039946	      4.33498890	     -8.95104478	     16.69214580	      0.60310315	      0.00000000	     27.72732411	      5.28191936	     -1.74551431	    -39.61930856	      8.93990459	     -6.89427108	      0.00000000	     -8.13381349	     -3.35243108	    176.05249748
      7.95000000	     -0.95399898	      2.37740679	      5.26154419	      2.36773227	      0.88911228	     -0.19574566	     -5.22755773	      3.10389496	      4.85475455	     -8.76926442	     16.75754222	      0.57638489	      0.00000000	     27.49515969	      5.21760457	     -1.71776273	    -35.70473897	      8.18897224	     -7.50225352	      0.00000000	     -8.15010369	     -3.15997596	    176.53032375
      7.96000000	     -1.06716142	      2.24350746	      4.85307410	      2.37743191	      0.88807276	     -0.19583219	     -5.83897318	      3.22550743	      5.28042545	     -8.63707635	     16.82027000	      0.53797294	      0.00000000	     27.22969334	      5.11776163	     -1.62960514	    -31.66977525	      7.30799462	     -8.34392993	      0.00000000	     -8.02078971	     -2.94407956	    176.95281031
      7.97000000	     -1.16484041	      2.06694684	      4.42353384	      2.38729931	      0.88690345	     -0.19585823	     -6.44617010	      3.39036494	      5.74909336	     -8.56491283	     16.87748544	      0.48077185	      0.00000000	     26.84760741	      4.94365687	     -1.61086381	    -27.55737044	      6.39680786	     -9.29815488	      0.00000000	     -7.88391821	     -2.68879381	    177.40846302
